<?xml version="1.0" encoding="utf-8"?>
<!-- Generator: Adobe Illustrator 22.1.0, SVG Export Plug-In . SVG Version: 6.00 Build 0)  -->
<svg version="1.1" id="Layer_1" xmlns="http://www.w3.org/2000/svg" xmlns:xlink="http://www.w3.org/1999/xlink" x="0px" y="0px"
	 viewBox="0 0 50 50" style="enable-background:new 0 0 50 50;" xml:space="preserve">
<style type="text/css">
	.st0{fill:#242424;}
	.st1{fill:#FFFFFF;}
</style>
<g>
	<circle class="st0" cx="24.9" cy="24.3" r="21.7"/>
	<path class="st1" d="M33.4,11.8c0,0.9-0.8,1.7-1.7,1.7c-1,0-1.7-0.8-1.7-1.7c0,0,0,0,0,0c0-1,0.8-1.7,1.7-1.7S33.4,10.8,33.4,11.8z
		 M32.1,17.8c-0.8,0-1.5-0.7-1.5-1.5c0-0.8,0.7-1.5,1.5-1.5c0.8,0,1.5,0.7,1.5,1.5C33.6,17.1,33,17.8,32.1,17.8L32.1,17.8z
		 M31.7,21.4c-0.7,0-1.2-0.5-1.2-1.2c0,0,0,0,0,0c0-0.7,0.6-1.2,1.2-1.2c0,0,0,0,0,0c0.7,0,1.2,0.5,1.2,1.2c0,0,0,0,0,0
		C32.9,20.8,32.4,21.4,31.7,21.4C31.7,21.4,31.7,21.4,31.7,21.4z M31.6,23.2c0,0.6-0.5,1.1-1.1,1.1c-0.6,0-1.1-0.5-1.1-1.1
		s0.5-1.1,1.1-1.1C31.1,22.2,31.6,22.6,31.6,23.2L31.6,23.2z M29.9,25.6c0,0.5-0.4,0.9-0.9,0.9c-0.5,0-0.9-0.4-0.9-0.9
		c0-0.5,0.4-0.9,0.9-0.9C29.5,24.7,30,25.1,29.9,25.6L29.9,25.6z M28.1,27.2c0,0.4-0.3,0.8-0.8,0.8c-0.4,0-0.8-0.3-0.8-0.8
		c0-0.4,0.3-0.8,0.8-0.8C27.8,26.4,28.1,26.8,28.1,27.2z M37.4,17.2c-0.2,0.8-1,1.2-1.8,1c-0.7-0.2-1.2-0.9-1.1-1.7
		c0.2-0.8,1-1.3,1.8-1.1C37.1,15.6,37.6,16.4,37.4,17.2z M36.7,21c-0.2,0.7-0.8,1.1-1.5,0.9s-1.1-0.8-0.9-1.5l0,0
		c0.2-0.7,0.8-1.1,1.5-0.9S36.9,20.3,36.7,21z M35.4,24c-0.1,0.6-0.7,0.9-1.3,0.8c-0.6-0.1-0.9-0.7-0.8-1.3c0.2-0.6,0.7-0.9,1.3-0.7
		C35.2,23,35.5,23.5,35.4,24z M33.7,26.3c-0.1,0.5-0.6,0.8-1.1,0.6c-0.4-0.1-0.7-0.6-0.6-1c0.1-0.5,0.6-0.8,1.1-0.7c0,0,0,0,0,0
		C33.6,25.4,33.9,25.8,33.7,26.3C33.7,26.3,33.7,26.3,33.7,26.3z M31.9,27.9c-0.1,0.4-0.5,0.7-0.9,0.6s-0.7-0.5-0.6-0.9
		s0.5-0.7,0.9-0.6C31.7,27.1,32,27.5,31.9,27.9z M30.1,28.9c-0.1,0.4-0.5,0.5-0.8,0.4c-0.3-0.1-0.5-0.4-0.5-0.7
		c0.1-0.4,0.5-0.5,0.8-0.4C29.9,28.3,30.1,28.6,30.1,28.9z M39.7,22.4c-0.3,0.6-1,0.9-1.7,0.6c-0.6-0.3-0.9-1-0.6-1.7c0,0,0,0,0,0
		c0.3-0.6,1-0.9,1.7-0.6C39.7,21,40,21.7,39.7,22.4C39.7,22.4,39.7,22.4,39.7,22.4z M38.4,25.4c-0.3,0.5-0.9,0.7-1.4,0.4
		c-0.5-0.3-0.7-0.9-0.5-1.4c0.3-0.5,0.9-0.7,1.4-0.5C38.4,24.2,38.6,24.8,38.4,25.4C38.4,25.4,38.4,25.4,38.4,25.4z M36.8,27.6
		c-0.2,0.5-0.8,0.6-1.2,0.4c-0.5-0.2-0.6-0.8-0.4-1.2c0,0,0,0,0,0c0.2-0.4,0.8-0.6,1.2-0.4C36.8,26.7,36.9,27.2,36.8,27.6L36.8,27.6
		z M34.9,29.3c-0.2,0.4-0.7,0.6-1.1,0.4c-0.4-0.2-0.6-0.7-0.4-1.1c0.2-0.4,0.7-0.6,1.1-0.4c0,0,0,0,0,0C35,28.4,35.1,28.9,34.9,29.3
		C34.9,29.3,34.9,29.3,34.9,29.3z M33.1,30.2c-0.2,0.3-0.6,0.5-0.9,0.3c-0.3-0.2-0.4-0.5-0.3-0.9c0.2-0.3,0.6-0.4,0.9-0.2
		C33.1,29.6,33.2,29.9,33.1,30.2z M31.4,30.7c-0.1,0.3-0.5,0.4-0.8,0.3c-0.3-0.1-0.4-0.5-0.3-0.8s0.5-0.4,0.8-0.3
		C31.4,30.1,31.5,30.5,31.4,30.7C31.4,30.7,31.4,30.7,31.4,30.7z M32.8,37.3c-0.8-0.5-1.1-1.5-0.6-2.3c0,0,0,0,0,0
		c0.5-0.8,1.5-1.1,2.4-0.6c0.8,0.5,1.1,1.5,0.6,2.3C34.7,37.5,33.6,37.8,32.8,37.3L32.8,37.3z M28.7,35.2c-0.7-0.4-0.9-1.3-0.5-2
		c0,0,0,0,0,0c0.4-0.7,1.3-0.9,2-0.5c0.7,0.4,0.9,1.3,0.5,2C30.3,35.4,29.4,35.7,28.7,35.2z M25.7,32.8c-0.6-0.3-0.8-1.1-0.5-1.7
		c0,0,0,0,0,0c0.3-0.6,1.1-0.8,1.7-0.5c0.6,0.3,0.8,1.1,0.5,1.7c0,0,0,0,0,0C27.1,32.9,26.3,33.1,25.7,32.8z M23.7,30.1
		c-0.5-0.3-0.7-0.9-0.4-1.4c0.3-0.5,0.9-0.7,1.4-0.4c0.5,0.3,0.7,0.9,0.4,1.4C24.9,30.2,24.2,30.4,23.7,30.1z M22.5,27.5
		c-0.4-0.2-0.6-0.8-0.3-1.2c0,0,0,0,0,0c0.3-0.4,0.8-0.6,1.2-0.3c0.4,0.2,0.6,0.8,0.3,1.2C23.5,27.6,22.9,27.7,22.5,27.5z M22,25.1
		c-0.4-0.2-0.5-0.7-0.3-1.1c0,0,0,0,0,0c0.2-0.4,0.7-0.5,1.1-0.3c0.4,0.2,0.5,0.7,0.3,1.1C22.8,25.2,22.4,25.3,22,25.1L22,25.1z
		 M27.1,38.5c-0.8,0-1.5-0.7-1.5-1.5c0,0,0,0,0,0c0-0.8,0.7-1.5,1.5-1.5c0,0,0,0,0,0c0.8,0,1.5,0.7,1.5,1.5
		C28.5,37.9,27.9,38.5,27.1,38.5z M23.1,35.6c-0.5-0.5-0.5-1.2-0.1-1.7c0,0,0,0,0,0c0.5-0.5,1.3-0.5,1.8-0.1
		c0.5,0.5,0.5,1.3,0.1,1.8C24.4,36.1,23.6,36.1,23.1,35.6z M21.1,33c-0.4-0.4-0.4-1.1,0-1.5c0,0,0,0,0,0c0.4-0.4,1.1-0.4,1.5,0
		c0.4,0.4,0.4,1.1,0.1,1.5c0,0,0,0,0,0C22.2,33.4,21.6,33.4,21.1,33z M20,30.4c-0.4-0.3-0.4-0.9,0-1.3c0,0,0,0,0,0
		c0.3-0.4,0.9-0.4,1.3,0c0.4,0.3,0.4,0.9,0,1.3c0,0,0,0,0,0C20.9,30.7,20.3,30.7,20,30.4z M19.5,28c-0.3-0.3-0.3-0.8,0-1.1
		c0,0,0,0,0,0c0.3-0.3,0.8-0.3,1.1,0c0.3,0.3,0.3,0.8,0,1.1C20.3,28.3,19.8,28.3,19.5,28z M19.5,25.9c-0.3-0.2-0.3-0.7,0-0.9
		c0,0,0,0,0,0c0.3-0.3,0.7-0.3,0.9,0c0.2,0.3,0.2,0.7,0,0.9C20.1,26.1,19.8,26.1,19.5,25.9z M20.4,37.5c-0.4-0.6-0.2-1.3,0.3-1.7
		c0,0,0,0,0,0c0.6-0.4,1.3-0.2,1.7,0.3c0.4,0.6,0.2,1.3-0.3,1.7c0,0,0,0,0,0C21.6,38.2,20.8,38.1,20.4,37.5z M18.5,34.9
		c-0.3-0.5-0.2-1.1,0.3-1.5c0,0,0,0,0,0c0.5-0.3,1.1-0.2,1.5,0.3c0.3,0.5,0.2,1.1-0.3,1.5c0,0,0,0,0,0
		C19.5,35.5,18.8,35.3,18.5,34.9z M17.3,32.3c-0.3-0.4-0.2-1,0.2-1.3c0,0,0,0,0,0c0.4-0.3,1-0.2,1.3,0.2c0.3,0.4,0.2,1-0.2,1.3
		c0,0,0,0,0,0C18.2,32.8,17.6,32.7,17.3,32.3z M16.8,29.9c-0.2-0.4-0.2-0.9,0.2-1.1c0,0,0,0,0,0c0.4-0.2,0.9-0.2,1.1,0.2
		c0.2,0.4,0.2,0.9-0.2,1.1c0,0,0,0,0,0C17.6,30.4,17.1,30.3,16.8,29.9z M16.9,27.9c-0.2-0.3-0.1-0.7,0.2-0.9c0,0,0,0,0,0
		c0.3-0.2,0.7-0.1,0.9,0.2c0.2,0.3,0.1,0.7-0.2,0.9C17.5,28.2,17.1,28.1,16.9,27.9z M17.3,26.1c-0.2-0.3-0.1-0.6,0.1-0.8
		c0.3-0.2,0.6-0.1,0.8,0.1c0,0,0,0,0,0c0.2,0.3,0.1,0.6-0.2,0.8C17.8,26.4,17.5,26.4,17.3,26.1z M10.9,24c0.8-0.5,1.9-0.2,2.4,0.6
		c0.5,0.8,0.2,1.9-0.6,2.3c0,0,0,0,0,0c-0.8,0.5-1.9,0.2-2.4-0.6C9.8,25.6,10.1,24.5,10.9,24C10.9,24,10.9,24,10.9,24z M14.7,21.6
		c0.7-0.4,1.6-0.2,2,0.5c0.4,0.7,0.2,1.6-0.5,2c-0.7,0.4-1.6,0.2-2-0.5C13.8,22.9,14,22,14.7,21.6C14.7,21.6,14.7,21.6,14.7,21.6
		L14.7,21.6z M18.4,20.3c0.6-0.3,1.3-0.1,1.7,0.5c0.3,0.6,0.1,1.3-0.5,1.7c0,0,0,0,0,0c-0.6,0.3-1.3,0.1-1.7-0.5
		C17.6,21.3,17.8,20.6,18.4,20.3C18.4,20.3,18.4,20.3,18.4,20.3z M21.7,19.8c0.5-0.3,1.1-0.1,1.4,0.4c0.3,0.5,0.1,1.1-0.4,1.4
		c0,0,0,0,0,0c-0.5,0.3-1.2,0.1-1.4-0.4c0,0,0,0,0,0C21,20.8,21.2,20.1,21.7,19.8C21.7,19.8,21.7,19.8,21.7,19.8z M24.6,20.1
		c0.4-0.2,1-0.1,1.2,0.3c0.2,0.4,0,1-0.4,1.2c-0.4,0.2-0.9,0.1-1.2-0.3C24,20.9,24.1,20.4,24.6,20.1C24.6,20.1,24.6,20.1,24.6,20.1z
		 M26.9,20.9c0.4-0.2,0.8-0.1,1.1,0.3c0.2,0.4,0.1,0.8-0.3,1.1c0,0,0,0,0,0c-0.4,0.2-0.8,0.1-1.1-0.3C26.4,21.6,26.6,21.1,26.9,20.9
		z M13.6,17.8c0.8-0.2,1.6,0.2,1.8,1c0.2,0.8-0.3,1.6-1.1,1.8c-0.7,0.2-1.5-0.2-1.7-0.9C12.3,18.9,12.8,18.1,13.6,17.8
		C13.6,17.8,13.6,17.8,13.6,17.8z M17.2,16.5c0.7-0.2,1.3,0.2,1.5,0.9c0.2,0.6-0.2,1.3-0.8,1.5c-0.7,0.2-1.3-0.2-1.5-0.8
		S16.6,16.7,17.2,16.5z M20.5,16.2c0.6-0.2,1.1,0.1,1.3,0.7c0.2,0.6-0.1,1.1-0.7,1.3l0,0c-0.6,0.2-1.1-0.1-1.3-0.7
		C19.6,16.9,19.9,16.3,20.5,16.2z M23.3,16.5c0.5-0.1,1,0.1,1.1,0.6c0.1,0.5-0.1,1-0.6,1.1c-0.5,0.1-1-0.1-1.1-0.6
		C22.6,17.1,22.9,16.6,23.3,16.5C23.3,16.5,23.3,16.5,23.3,16.5L23.3,16.5z M25.7,17.2c0.4-0.1,0.8,0.2,0.9,0.6
		c0.1,0.4-0.1,0.8-0.5,0.9c-0.4,0.1-0.8-0.1-1-0.5C25,17.8,25.2,17.4,25.7,17.2L25.7,17.2z M27.5,18.3c0.3-0.1,0.7,0.1,0.8,0.4
		c0.1,0.3-0.1,0.7-0.4,0.8s-0.7-0.1-0.8-0.4C26.9,18.8,27.1,18.4,27.5,18.3z M16.9,13.3c0.7-0.1,1.3,0.5,1.3,1.1c0,0,0,0,0,0
		c0.1,0.7-0.5,1.3-1.2,1.3c-0.7,0.1-1.3-0.5-1.3-1.2C15.7,13.9,16.2,13.3,16.9,13.3C16.9,13.3,16.9,13.3,16.9,13.3L16.9,13.3z
		 M20.2,12.9c0.6,0,1.1,0.5,1.1,1c0,0.5-0.4,1-0.9,1.1c-0.6,0.1-1.1-0.3-1.2-0.9c-0.1-0.6,0.3-1.1,0.9-1.2
		C20.1,12.9,20.2,12.9,20.2,12.9z M23,13.2c0.5,0,0.9,0.4,0.9,0.9c0,0.5-0.3,0.9-0.8,0.9c-0.5,0-0.9-0.4-1-0.9
		C22.1,13.7,22.5,13.2,23,13.2z M25.3,14c0.4,0,0.8,0.3,0.8,0.8c0,0.4-0.3,0.8-0.7,0.8c-0.4,0-0.8-0.3-0.9-0.7
		C24.5,14.4,24.8,14,25.3,14C25.3,14,25.3,14,25.3,14z"/>
</g>
</svg>
