<?xml version="1.0" encoding="utf-8"?>
<!-- Generator: Adobe Illustrator 22.1.0, SVG Export Plug-In . SVG Version: 6.00 Build 0)  -->
<svg version="1.1" id="Layer_1" xmlns="http://www.w3.org/2000/svg" xmlns:xlink="http://www.w3.org/1999/xlink" x="0px" y="0px"
	 viewBox="0 0 200 32.3" style="enable-background:new 0 0 200 32.3;" xml:space="preserve">
<style type="text/css">
	.st0{fill:#0071AF;}
	.st1{font-family:'Thasadith-Bold';}
	.st2{font-size:29.5192px;}
	.st3{fill:#CFB539;}
	.st4{opacity:0.42;fill:none;stroke:#525050;stroke-width:0.75;stroke-miterlimit:10;}
</style>
<text transform="matrix(1 0 0 1 59.166 26.3252)" class="st0 st1 st2">Coin Glore</text>
<path class="st3" d="M49.8,26.7H12.1c-0.9,0-1.7-0.8-1.7-1.7v-4c0-0.9,0.7-1.7,1.7-1.7h37.7c0.9,0,1.7,0.7,1.7,1.7v4
	C51.5,25.9,50.8,26.7,49.8,26.7z"/>
<line class="st4" x1="15.7" y1="19.3" x2="15.7" y2="26.7"/>
<line class="st4" x1="21.2" y1="19.3" x2="21.2" y2="26.7"/>
<line class="st4" x1="26.7" y1="19.3" x2="26.7" y2="26.7"/>
<line class="st4" x1="31.8" y1="19.3" x2="31.8" y2="26.7"/>
<line class="st4" x1="36.9" y1="19.3" x2="36.9" y2="26.7"/>
<line class="st4" x1="41.6" y1="19.3" x2="41.6" y2="26.7"/>
<line class="st4" x1="46.6" y1="19.3" x2="46.6" y2="26.7"/>
<path class="st3" d="M53.5,18.4l-37.7,2.1c-0.9,0.1-1.7-0.7-1.8-1.6l-0.2-4c-0.1-0.9,0.7-1.7,1.6-1.8l37.7-2.1
	c0.9-0.1,1.7,0.7,1.8,1.6l0.2,4C55.1,17.6,54.4,18.4,53.5,18.4z"/>
<line class="st4" x1="19" y1="13" x2="19.4" y2="20.3"/>
<line class="st4" x1="24.5" y1="12.7" x2="24.9" y2="20"/>
<line class="st4" x1="29.9" y1="12.4" x2="30.3" y2="19.7"/>
<line class="st4" x1="35" y1="12.1" x2="35.4" y2="19.4"/>
<line class="st4" x1="40.1" y1="11.8" x2="40.5" y2="19.1"/>
<line class="st4" x1="44.9" y1="11.6" x2="45.3" y2="18.9"/>
<line class="st4" x1="49.8" y1="11.3" x2="50.2" y2="18.6"/>
<path class="st3" d="M50,11.4l-37.7,2.1c-0.9,0.1-1.7-0.7-1.8-1.6l-0.2-4C10.3,7,11,6.2,11.9,6.2l37.7-2.1c0.9-0.1,1.7,0.7,1.8,1.6
	l0.2,4C51.6,10.6,50.9,11.3,50,11.4z"/>
<line class="st4" x1="15.6" y1="6" x2="16" y2="13.3"/>
<line class="st4" x1="21" y1="5.7" x2="21.4" y2="13"/>
<line class="st4" x1="26.5" y1="5.4" x2="26.9" y2="12.7"/>
<line class="st4" x1="31.6" y1="5.1" x2="32" y2="12.4"/>
<line class="st4" x1="36.7" y1="4.8" x2="37.1" y2="12.1"/>
<line class="st4" x1="41.4" y1="4.5" x2="41.8" y2="11.8"/>
<line class="st4" x1="46.3" y1="4.3" x2="46.7" y2="11.6"/>
</svg>
