<?xml version="1.0" encoding="utf-8"?>
<!-- Generator: Adobe Illustrator 22.1.0, SVG Export Plug-In . SVG Version: 6.00 Build 0)  -->
<svg version="1.1" id="Layer_1" xmlns="http://www.w3.org/2000/svg" xmlns:xlink="http://www.w3.org/1999/xlink" x="0px" y="0px"
	 viewBox="0 0 50 50" style="enable-background:new 0 0 50 50;" xml:space="preserve">
<style type="text/css">
	.st0{fill:#F7941F;}
	.st1{fill:#FFFFFF;}
</style>
<g>
	<circle class="st0" cx="25.1" cy="24.6" r="21.5"/>
	<path class="st1" d="M34.8,21.9c0.4-2.8-1.7-4.3-4.7-5.3l1-3.8l-2.3-0.6l-0.9,3.7c-0.6-0.2-1.2-0.3-1.9-0.4l0.9-3.7l-2.3-0.6
		l-1,3.8c-0.5-0.1-1-0.2-1.5-0.3l0,0l-3.2-0.8l-0.6,2.5c0,0,1.7,0.4,1.7,0.4c0.9,0.2,1.1,0.9,1.1,1.4L20,22.4c0.1,0,0.1,0,0.2,0.1
		L20,22.4l-1.5,6.1c-0.1,0.3-0.4,0.7-1.1,0.6c0,0-1.7-0.4-1.7-0.4l-1.2,2.7l3,0.8c0.6,0.1,1.1,0.3,1.7,0.4l-1,3.9l2.3,0.6l1-3.8
		c0.6,0.2,1.3,0.3,1.9,0.5l-0.9,3.8l2.3,0.6l1-3.9c4,0.8,6.9,0.4,8.2-3.1c1-2.9,0-4.5-2.1-5.6C33.3,25,34.5,24,34.8,21.9z
		 M29.5,29.4c-0.7,2.9-5.6,1.3-7.2,0.9l1.3-5.1C25.2,25.6,30.2,26.4,29.5,29.4z M30.2,21.9c-0.7,2.6-4.7,1.3-6,1l1.2-4.6
		C26.6,18.5,30.9,19.1,30.2,21.9z"/>
</g>
</svg>
