<?xml version="1.0" encoding="utf-8"?>
<!-- Generator: Adobe Illustrator 22.1.0, SVG Export Plug-In . SVG Version: 6.00 Build 0)  -->
<svg version="1.1" id="Layer_1" xmlns="http://www.w3.org/2000/svg" xmlns:xlink="http://www.w3.org/1999/xlink" x="0px" y="0px"
	 viewBox="0 0 50 50" style="enable-background:new 0 0 50 50;" xml:space="preserve">
<style type="text/css">
	.st0{fill:#47B9EA;}
	.st1{fill:#FFFFFF;}
</style>
<g>
	<circle class="st0" cx="24.9" cy="24.3" r="21.7"/>
	<path class="st1" d="M23.2,36.1L12.8,14.9c-0.1-0.3,0-0.6,0.2-0.7c0.1,0,0.1-0.1,0.2-0.1h3.6c0.2,0,0.4,0.1,0.5,0.3l7.6,15.4
		c0.7,1.4,2.6,1.4,3.3,0l7.6-15.4c0.1-0.2,0.3-0.3,0.5-0.3h0.4c0.3,0,0.4,0.3,0.3,0.5L26.5,36.1C25.9,37.5,23.9,37.5,23.2,36.1
		L23.2,36.1z"/>
</g>
</svg>
